<mxfile host="app.diagrams.net" agent="Mozilla/5.0 (Macintosh; Intel Mac OS X 10_15_7) AppleWebKit/537.36 (KHTML, like Gecko) Chrome/135.0.0.0 Safari/537.36 Edg/135.0.0.0" version="26.2.9">
  <diagram name="Page-1" id="lW9Tn5dAu5Ar2mmLq8K-">
    <mxGraphModel dx="4810" dy="3660" grid="1" gridSize="10" guides="1" tooltips="1" connect="1" arrows="1" fold="1" page="1" pageScale="1" pageWidth="850" pageHeight="1100" math="0" shadow="0">
      <root>
        <mxCell id="0" />
        <mxCell id="1" parent="0" />
        <mxCell id="Vhyjj3y1teRu1IEEyOxo-1" value="Thali Book Backend" style="whiteSpace=wrap;strokeWidth=2;" vertex="1" parent="1">
          <mxGeometry x="254" y="124" width="3202" height="614" as="geometry" />
        </mxCell>
        <mxCell id="Vhyjj3y1teRu1IEEyOxo-2" value="Common" style="whiteSpace=wrap;strokeWidth=2;" vertex="1" parent="1">
          <mxGeometry x="274" y="585" width="708" height="128" as="geometry" />
        </mxCell>
        <mxCell id="Vhyjj3y1teRu1IEEyOxo-3" value="Notification Module" style="whiteSpace=wrap;strokeWidth=2;" vertex="1" parent="1">
          <mxGeometry x="1003" y="431" width="445" height="282" as="geometry" />
        </mxCell>
        <mxCell id="Vhyjj3y1teRu1IEEyOxo-4" value="Review Module" style="whiteSpace=wrap;strokeWidth=2;" vertex="1" parent="1">
          <mxGeometry x="1468" y="278" width="260" height="435" as="geometry" />
        </mxCell>
        <mxCell id="Vhyjj3y1teRu1IEEyOxo-5" value="Booking Module" style="whiteSpace=wrap;strokeWidth=2;" vertex="1" parent="1">
          <mxGeometry x="1748" y="149" width="575" height="564" as="geometry" />
        </mxCell>
        <mxCell id="Vhyjj3y1teRu1IEEyOxo-6" value="Restaurant Module" style="whiteSpace=wrap;strokeWidth=2;" vertex="1" parent="1">
          <mxGeometry x="2343" y="278" width="287" height="435" as="geometry" />
        </mxCell>
        <mxCell id="Vhyjj3y1teRu1IEEyOxo-7" value="User Module" style="whiteSpace=wrap;strokeWidth=2;" vertex="1" parent="1">
          <mxGeometry x="2650" y="278" width="242" height="435" as="geometry" />
        </mxCell>
        <mxCell id="Vhyjj3y1teRu1IEEyOxo-8" value="Security Module" style="whiteSpace=wrap;strokeWidth=2;" vertex="1" parent="1">
          <mxGeometry x="2910.5" y="149" width="525" height="500" as="geometry" />
        </mxCell>
        <mxCell id="Vhyjj3y1teRu1IEEyOxo-9" value="JWT Filter" style="whiteSpace=wrap;strokeWidth=2;" vertex="1" parent="1">
          <mxGeometry x="2974" y="315" width="134" height="54" as="geometry" />
        </mxCell>
        <mxCell id="Vhyjj3y1teRu1IEEyOxo-74" value="" style="edgeStyle=orthogonalEdgeStyle;rounded=0;orthogonalLoop=1;jettySize=auto;html=1;" edge="1" parent="1" source="Vhyjj3y1teRu1IEEyOxo-10" target="Vhyjj3y1teRu1IEEyOxo-9">
          <mxGeometry relative="1" as="geometry" />
        </mxCell>
        <mxCell id="Vhyjj3y1teRu1IEEyOxo-10" value="Authentication Controller" style="whiteSpace=wrap;strokeWidth=2;" vertex="1" parent="1">
          <mxGeometry x="3158" y="315" width="243" height="54" as="geometry" />
        </mxCell>
        <mxCell id="Vhyjj3y1teRu1IEEyOxo-11" value="Security Config" style="whiteSpace=wrap;strokeWidth=2;" vertex="1" parent="1">
          <mxGeometry x="2947" y="174" width="168" height="54" as="geometry" />
        </mxCell>
        <mxCell id="Vhyjj3y1teRu1IEEyOxo-12" value="JWT Token Provider" style="whiteSpace=wrap;strokeWidth=2;" vertex="1" parent="1">
          <mxGeometry x="3073" y="456" width="200" height="54" as="geometry" />
        </mxCell>
        <mxCell id="Vhyjj3y1teRu1IEEyOxo-13" value="User Controller" style="whiteSpace=wrap;strokeWidth=2;" vertex="1" parent="1">
          <mxGeometry x="2686" y="315" width="169" height="54" as="geometry" />
        </mxCell>
        <mxCell id="Vhyjj3y1teRu1IEEyOxo-14" value="User Service" style="whiteSpace=wrap;strokeWidth=2;" vertex="1" parent="1">
          <mxGeometry x="2697" y="456" width="148" height="54" as="geometry" />
        </mxCell>
        <mxCell id="Vhyjj3y1teRu1IEEyOxo-15" value="User Repository" style="whiteSpace=wrap;strokeWidth=2;" vertex="1" parent="1">
          <mxGeometry x="2685" y="622" width="172" height="54" as="geometry" />
        </mxCell>
        <mxCell id="Vhyjj3y1teRu1IEEyOxo-16" value="Restaurant Controller" style="whiteSpace=wrap;strokeWidth=2;" vertex="1" parent="1">
          <mxGeometry x="2380" y="315" width="214" height="54" as="geometry" />
        </mxCell>
        <mxCell id="Vhyjj3y1teRu1IEEyOxo-17" value="Restaurant Service" style="whiteSpace=wrap;strokeWidth=2;" vertex="1" parent="1">
          <mxGeometry x="2390" y="456" width="194" height="54" as="geometry" />
        </mxCell>
        <mxCell id="Vhyjj3y1teRu1IEEyOxo-18" value="Restaurant Repository" style="whiteSpace=wrap;strokeWidth=2;" vertex="1" parent="1">
          <mxGeometry x="2378" y="622" width="217" height="54" as="geometry" />
        </mxCell>
        <mxCell id="Vhyjj3y1teRu1IEEyOxo-19" value="Booking Controller" style="whiteSpace=wrap;strokeWidth=2;" vertex="1" parent="1">
          <mxGeometry x="1810" y="174" width="193" height="54" as="geometry" />
        </mxCell>
        <mxCell id="Vhyjj3y1teRu1IEEyOxo-20" value="Booking Service" style="whiteSpace=wrap;strokeWidth=2;" vertex="1" parent="1">
          <mxGeometry x="1820" y="315" width="172" height="54" as="geometry" />
        </mxCell>
        <mxCell id="Vhyjj3y1teRu1IEEyOxo-21" value="Booking Repository" style="whiteSpace=wrap;strokeWidth=2;" vertex="1" parent="1">
          <mxGeometry x="2093" y="622" width="195" height="54" as="geometry" />
        </mxCell>
        <mxCell id="Vhyjj3y1teRu1IEEyOxo-22" value="Table Availability Service" style="whiteSpace=wrap;strokeWidth=2;" vertex="1" parent="1">
          <mxGeometry x="1794" y="456" width="238" height="54" as="geometry" />
        </mxCell>
        <mxCell id="Vhyjj3y1teRu1IEEyOxo-23" value="Table Availability Repository" style="whiteSpace=wrap;strokeWidth=2;" vertex="1" parent="1">
          <mxGeometry x="1783" y="610" width="260" height="78" as="geometry" />
        </mxCell>
        <mxCell id="Vhyjj3y1teRu1IEEyOxo-24" value="Review Controller" style="whiteSpace=wrap;strokeWidth=2;" vertex="1" parent="1">
          <mxGeometry x="1504" y="315" width="188" height="54" as="geometry" />
        </mxCell>
        <mxCell id="Vhyjj3y1teRu1IEEyOxo-25" value="Review Service" style="whiteSpace=wrap;strokeWidth=2;" vertex="1" parent="1">
          <mxGeometry x="1514" y="456" width="167" height="54" as="geometry" />
        </mxCell>
        <mxCell id="Vhyjj3y1teRu1IEEyOxo-26" value="Review Repository" style="whiteSpace=wrap;strokeWidth=2;" vertex="1" parent="1">
          <mxGeometry x="1503" y="622" width="190" height="54" as="geometry" />
        </mxCell>
        <mxCell id="Vhyjj3y1teRu1IEEyOxo-27" value="Notification Service" style="whiteSpace=wrap;strokeWidth=2;" vertex="1" parent="1">
          <mxGeometry x="1038" y="456" width="201" height="54" as="geometry" />
        </mxCell>
        <mxCell id="Vhyjj3y1teRu1IEEyOxo-28" value="Email Service" style="whiteSpace=wrap;strokeWidth=2;" vertex="1" parent="1">
          <mxGeometry x="1257" y="622" width="156" height="54" as="geometry" />
        </mxCell>
        <mxCell id="Vhyjj3y1teRu1IEEyOxo-29" value="SMS Service" style="whiteSpace=wrap;strokeWidth=2;" vertex="1" parent="1">
          <mxGeometry x="1063" y="622" width="143" height="54" as="geometry" />
        </mxCell>
        <mxCell id="Vhyjj3y1teRu1IEEyOxo-30" value="Exception Handler" style="whiteSpace=wrap;strokeWidth=2;" vertex="1" parent="1">
          <mxGeometry x="309" y="622" width="191" height="54" as="geometry" />
        </mxCell>
        <mxCell id="Vhyjj3y1teRu1IEEyOxo-31" value="Data Transfer Objects" style="whiteSpace=wrap;strokeWidth=2;" vertex="1" parent="1">
          <mxGeometry x="551" y="622" width="216" height="54" as="geometry" />
        </mxCell>
        <mxCell id="Vhyjj3y1teRu1IEEyOxo-32" value="Validation" style="whiteSpace=wrap;strokeWidth=2;" vertex="1" parent="1">
          <mxGeometry x="816" y="622" width="131" height="54" as="geometry" />
        </mxCell>
        <mxCell id="Vhyjj3y1teRu1IEEyOxo-33" value="PostgreSQL RDS" style="shape=cylinder3;boundedLbl=1;backgroundOutline=1;size=10;strokeWidth=2;whiteSpace=wrap;" vertex="1" parent="1">
          <mxGeometry x="2141" y="789" width="125" height="77" as="geometry" />
        </mxCell>
        <mxCell id="Vhyjj3y1teRu1IEEyOxo-34" value="React Frontend" style="whiteSpace=wrap;strokeWidth=2;" vertex="1" parent="1">
          <mxGeometry x="2402" y="20" width="170" height="54" as="geometry" />
        </mxCell>
        <mxCell id="Vhyjj3y1teRu1IEEyOxo-35" value="SMTP Server" style="whiteSpace=wrap;strokeWidth=2;" vertex="1" parent="1">
          <mxGeometry x="1261" y="800" width="147" height="54" as="geometry" />
        </mxCell>
        <mxCell id="Vhyjj3y1teRu1IEEyOxo-36" value="Twilio API" style="whiteSpace=wrap;strokeWidth=2;" vertex="1" parent="1">
          <mxGeometry x="1071" y="800" width="128" height="54" as="geometry" />
        </mxCell>
        <mxCell id="Vhyjj3y1teRu1IEEyOxo-37" value="Authentication &amp; Authorization" style="whiteSpace=wrap;strokeWidth=2;" vertex="1" parent="1">
          <mxGeometry x="3491" y="303" width="260" height="78" as="geometry" />
        </mxCell>
        <mxCell id="Vhyjj3y1teRu1IEEyOxo-38" value="Strategy Pattern" style="whiteSpace=wrap;strokeWidth=2;" vertex="1" parent="1">
          <mxGeometry x="42" y="622" width="177" height="54" as="geometry" />
        </mxCell>
        <mxCell id="Vhyjj3y1teRu1IEEyOxo-39" value="Centralized Exception Handling" style="whiteSpace=wrap;strokeWidth=2;" vertex="1" parent="1">
          <mxGeometry x="275" y="788" width="260" height="78" as="geometry" />
        </mxCell>
        <mxCell id="Vhyjj3y1teRu1IEEyOxo-40" value="Core Business Logic" style="whiteSpace=wrap;strokeWidth=2;" vertex="1" parent="1">
          <mxGeometry x="20" y="456" width="199" height="54" as="geometry" />
        </mxCell>
        <mxCell id="Vhyjj3y1teRu1IEEyOxo-41" value="" style="curved=1;startArrow=none;endArrow=block;exitX=0.62;exitY=1;entryX=0.96;entryY=0;rounded=0;" edge="1" parent="1" source="Vhyjj3y1teRu1IEEyOxo-10" target="Vhyjj3y1teRu1IEEyOxo-12">
          <mxGeometry relative="1" as="geometry">
            <Array as="points">
              <mxPoint x="3348" y="406" />
              <mxPoint x="3348" y="431" />
            </Array>
          </mxGeometry>
        </mxCell>
        <mxCell id="Vhyjj3y1teRu1IEEyOxo-42" value="" style="curved=1;startArrow=none;endArrow=block;exitX=0.5;exitY=1;entryX=0.16;entryY=0;rounded=0;" edge="1" parent="1" source="Vhyjj3y1teRu1IEEyOxo-9" target="Vhyjj3y1teRu1IEEyOxo-12">
          <mxGeometry relative="1" as="geometry">
            <Array as="points">
              <mxPoint x="3041" y="431" />
            </Array>
          </mxGeometry>
        </mxCell>
        <mxCell id="Vhyjj3y1teRu1IEEyOxo-43" value="" style="curved=1;startArrow=none;endArrow=block;exitX=0.53;exitY=1;entryX=0.5;entryY=0;rounded=0;" edge="1" parent="1" source="Vhyjj3y1teRu1IEEyOxo-11" target="Vhyjj3y1teRu1IEEyOxo-9">
          <mxGeometry relative="1" as="geometry">
            <Array as="points">
              <mxPoint x="3041" y="253" />
            </Array>
          </mxGeometry>
        </mxCell>
        <mxCell id="Vhyjj3y1teRu1IEEyOxo-44" value="" style="curved=1;startArrow=none;endArrow=block;exitX=0.5;exitY=1;entryX=0.5;entryY=0;rounded=0;" edge="1" parent="1" source="Vhyjj3y1teRu1IEEyOxo-13" target="Vhyjj3y1teRu1IEEyOxo-14">
          <mxGeometry relative="1" as="geometry">
            <Array as="points" />
          </mxGeometry>
        </mxCell>
        <mxCell id="Vhyjj3y1teRu1IEEyOxo-45" value="" style="curved=1;startArrow=none;endArrow=block;exitX=0.5;exitY=1;entryX=0.5;entryY=0;rounded=0;" edge="1" parent="1" source="Vhyjj3y1teRu1IEEyOxo-16" target="Vhyjj3y1teRu1IEEyOxo-17">
          <mxGeometry relative="1" as="geometry">
            <Array as="points" />
          </mxGeometry>
        </mxCell>
        <mxCell id="Vhyjj3y1teRu1IEEyOxo-46" value="" style="curved=1;startArrow=none;endArrow=block;exitX=0.5;exitY=1;entryX=0.5;entryY=0;rounded=0;" edge="1" parent="1" source="Vhyjj3y1teRu1IEEyOxo-19" target="Vhyjj3y1teRu1IEEyOxo-20">
          <mxGeometry relative="1" as="geometry">
            <Array as="points" />
          </mxGeometry>
        </mxCell>
        <mxCell id="Vhyjj3y1teRu1IEEyOxo-47" value="" style="curved=1;startArrow=none;endArrow=block;exitX=0.5;exitY=1;entryX=0.5;entryY=0;rounded=0;" edge="1" parent="1" source="Vhyjj3y1teRu1IEEyOxo-24" target="Vhyjj3y1teRu1IEEyOxo-25">
          <mxGeometry relative="1" as="geometry">
            <Array as="points" />
          </mxGeometry>
        </mxCell>
        <mxCell id="Vhyjj3y1teRu1IEEyOxo-48" value="" style="curved=1;startArrow=none;endArrow=block;exitX=0.31;exitY=1;entryX=1;entryY=0.32;rounded=0;" edge="1" parent="1" source="Vhyjj3y1teRu1IEEyOxo-10" target="Vhyjj3y1teRu1IEEyOxo-14">
          <mxGeometry relative="1" as="geometry">
            <Array as="points">
              <mxPoint x="3170" y="406" />
              <mxPoint x="3120" y="430" />
            </Array>
          </mxGeometry>
        </mxCell>
        <mxCell id="Vhyjj3y1teRu1IEEyOxo-49" value="" style="curved=1;startArrow=none;endArrow=block;exitX=0.5;exitY=1;entryX=0.5;entryY=0;rounded=0;" edge="1" parent="1" source="Vhyjj3y1teRu1IEEyOxo-14" target="Vhyjj3y1teRu1IEEyOxo-15">
          <mxGeometry relative="1" as="geometry">
            <Array as="points" />
          </mxGeometry>
        </mxCell>
        <mxCell id="Vhyjj3y1teRu1IEEyOxo-50" value="" style="curved=1;startArrow=none;endArrow=block;exitX=0.5;exitY=1;entryX=0.5;entryY=0;rounded=0;" edge="1" parent="1" source="Vhyjj3y1teRu1IEEyOxo-17" target="Vhyjj3y1teRu1IEEyOxo-18">
          <mxGeometry relative="1" as="geometry">
            <Array as="points" />
          </mxGeometry>
        </mxCell>
        <mxCell id="Vhyjj3y1teRu1IEEyOxo-51" value="" style="curved=1;startArrow=none;endArrow=block;exitX=1;exitY=0.86;entryX=0.5;entryY=0;rounded=0;" edge="1" parent="1" source="Vhyjj3y1teRu1IEEyOxo-20" target="Vhyjj3y1teRu1IEEyOxo-21">
          <mxGeometry relative="1" as="geometry">
            <Array as="points">
              <mxPoint x="2191" y="406" />
            </Array>
          </mxGeometry>
        </mxCell>
        <mxCell id="Vhyjj3y1teRu1IEEyOxo-52" value="" style="curved=1;startArrow=none;endArrow=block;exitX=0.52;exitY=1;entryX=0.5;entryY=0;rounded=0;" edge="1" parent="1" source="Vhyjj3y1teRu1IEEyOxo-20" target="Vhyjj3y1teRu1IEEyOxo-22">
          <mxGeometry relative="1" as="geometry">
            <Array as="points">
              <mxPoint x="1913" y="406" />
            </Array>
          </mxGeometry>
        </mxCell>
        <mxCell id="Vhyjj3y1teRu1IEEyOxo-53" value="" style="curved=1;startArrow=none;endArrow=block;exitX=0.5;exitY=1;entryX=0.5;entryY=0;rounded=0;" edge="1" parent="1" source="Vhyjj3y1teRu1IEEyOxo-22" target="Vhyjj3y1teRu1IEEyOxo-23">
          <mxGeometry relative="1" as="geometry">
            <Array as="points" />
          </mxGeometry>
        </mxCell>
        <mxCell id="Vhyjj3y1teRu1IEEyOxo-54" value="" style="curved=1;startArrow=none;endArrow=block;exitX=0.5;exitY=1;entryX=0.5;entryY=0;rounded=0;" edge="1" parent="1" source="Vhyjj3y1teRu1IEEyOxo-25" target="Vhyjj3y1teRu1IEEyOxo-26">
          <mxGeometry relative="1" as="geometry">
            <Array as="points" />
          </mxGeometry>
        </mxCell>
        <mxCell id="Vhyjj3y1teRu1IEEyOxo-55" value="" style="curved=1;startArrow=none;endArrow=block;exitX=0.5;exitY=1;entryX=1;entryY=0.4;rounded=0;" edge="1" parent="1" source="Vhyjj3y1teRu1IEEyOxo-15" target="Vhyjj3y1teRu1IEEyOxo-33">
          <mxGeometry relative="1" as="geometry">
            <Array as="points">
              <mxPoint x="2771" y="763" />
            </Array>
          </mxGeometry>
        </mxCell>
        <mxCell id="Vhyjj3y1teRu1IEEyOxo-56" value="" style="curved=1;startArrow=none;endArrow=block;exitX=0.5;exitY=1;entryX=1;entryY=0.31;rounded=0;" edge="1" parent="1" source="Vhyjj3y1teRu1IEEyOxo-18" target="Vhyjj3y1teRu1IEEyOxo-33">
          <mxGeometry relative="1" as="geometry">
            <Array as="points">
              <mxPoint x="2487" y="763" />
            </Array>
          </mxGeometry>
        </mxCell>
        <mxCell id="Vhyjj3y1teRu1IEEyOxo-57" value="" style="curved=1;startArrow=none;endArrow=block;exitX=0.5;exitY=1;entryX=0.44;entryY=0;rounded=0;" edge="1" parent="1" source="Vhyjj3y1teRu1IEEyOxo-21" target="Vhyjj3y1teRu1IEEyOxo-33">
          <mxGeometry relative="1" as="geometry">
            <Array as="points">
              <mxPoint x="2191" y="763" />
            </Array>
          </mxGeometry>
        </mxCell>
        <mxCell id="Vhyjj3y1teRu1IEEyOxo-58" value="" style="curved=1;startArrow=none;endArrow=block;exitX=0.5;exitY=1;entryX=0;entryY=0.31;rounded=0;" edge="1" parent="1" source="Vhyjj3y1teRu1IEEyOxo-23" target="Vhyjj3y1teRu1IEEyOxo-33">
          <mxGeometry relative="1" as="geometry">
            <Array as="points">
              <mxPoint x="1913" y="763" />
            </Array>
          </mxGeometry>
        </mxCell>
        <mxCell id="Vhyjj3y1teRu1IEEyOxo-59" value="" style="curved=1;startArrow=none;endArrow=block;exitX=0.5;exitY=1;entryX=0;entryY=0.41;rounded=0;" edge="1" parent="1" source="Vhyjj3y1teRu1IEEyOxo-26" target="Vhyjj3y1teRu1IEEyOxo-33">
          <mxGeometry relative="1" as="geometry">
            <Array as="points">
              <mxPoint x="1598" y="763" />
            </Array>
          </mxGeometry>
        </mxCell>
        <mxCell id="Vhyjj3y1teRu1IEEyOxo-60" value="" style="curved=1;startArrow=none;endArrow=block;exitX=0.34;exitY=1;entryX=1;entryY=0.36;rounded=0;" edge="1" parent="1" source="Vhyjj3y1teRu1IEEyOxo-20" target="Vhyjj3y1teRu1IEEyOxo-27">
          <mxGeometry relative="1" as="geometry">
            <Array as="points">
              <mxPoint x="1840" y="406" />
              <mxPoint x="1840" y="431" />
            </Array>
          </mxGeometry>
        </mxCell>
        <mxCell id="Vhyjj3y1teRu1IEEyOxo-61" value="" style="curved=1;startArrow=none;endArrow=block;exitX=1;exitY=0.99;entryX=0.5;entryY=0;rounded=0;" edge="1" parent="1" source="Vhyjj3y1teRu1IEEyOxo-27" target="Vhyjj3y1teRu1IEEyOxo-28">
          <mxGeometry relative="1" as="geometry">
            <Array as="points">
              <mxPoint x="1335" y="535" />
            </Array>
          </mxGeometry>
        </mxCell>
        <mxCell id="Vhyjj3y1teRu1IEEyOxo-62" value="" style="curved=1;startArrow=none;endArrow=block;exitX=0.49;exitY=1;entryX=0.5;entryY=0;rounded=0;" edge="1" parent="1" source="Vhyjj3y1teRu1IEEyOxo-27" target="Vhyjj3y1teRu1IEEyOxo-29">
          <mxGeometry relative="1" as="geometry">
            <Array as="points">
              <mxPoint x="1135" y="535" />
            </Array>
          </mxGeometry>
        </mxCell>
        <mxCell id="Vhyjj3y1teRu1IEEyOxo-63" value="" style="curved=1;startArrow=none;endArrow=block;exitX=0.5;exitY=1;entryX=0.5;entryY=0;rounded=0;" edge="1" parent="1" source="Vhyjj3y1teRu1IEEyOxo-28" target="Vhyjj3y1teRu1IEEyOxo-35">
          <mxGeometry relative="1" as="geometry">
            <Array as="points" />
          </mxGeometry>
        </mxCell>
        <mxCell id="Vhyjj3y1teRu1IEEyOxo-64" value="" style="curved=1;startArrow=none;endArrow=block;exitX=0.5;exitY=1;entryX=0.5;entryY=0;rounded=0;" edge="1" parent="1" source="Vhyjj3y1teRu1IEEyOxo-29" target="Vhyjj3y1teRu1IEEyOxo-36">
          <mxGeometry relative="1" as="geometry">
            <Array as="points" />
          </mxGeometry>
        </mxCell>
        <mxCell id="Vhyjj3y1teRu1IEEyOxo-65" value="" style="curved=1;startArrow=none;endArrow=block;exitX=1;exitY=0.6;entryX=0.5;entryY=0;rounded=0;" edge="1" parent="1" source="Vhyjj3y1teRu1IEEyOxo-34" target="Vhyjj3y1teRu1IEEyOxo-10">
          <mxGeometry relative="1" as="geometry">
            <Array as="points">
              <mxPoint x="3280" y="99" />
            </Array>
          </mxGeometry>
        </mxCell>
        <mxCell id="Vhyjj3y1teRu1IEEyOxo-66" value="" style="curved=1;startArrow=none;endArrow=block;exitX=1;exitY=0.79;entryX=0.5;entryY=0;rounded=0;" edge="1" parent="1" source="Vhyjj3y1teRu1IEEyOxo-34" target="Vhyjj3y1teRu1IEEyOxo-13">
          <mxGeometry relative="1" as="geometry">
            <Array as="points">
              <mxPoint x="2771" y="99" />
            </Array>
          </mxGeometry>
        </mxCell>
        <mxCell id="Vhyjj3y1teRu1IEEyOxo-67" value="" style="curved=1;startArrow=none;endArrow=block;exitX=0.5;exitY=1;entryX=0.5;entryY=0;rounded=0;" edge="1" parent="1" source="Vhyjj3y1teRu1IEEyOxo-34" target="Vhyjj3y1teRu1IEEyOxo-16">
          <mxGeometry relative="1" as="geometry">
            <Array as="points" />
          </mxGeometry>
        </mxCell>
        <mxCell id="Vhyjj3y1teRu1IEEyOxo-68" value="" style="curved=1;startArrow=none;endArrow=block;exitX=0;exitY=0.64;entryX=0.5;entryY=0;rounded=0;" edge="1" parent="1" source="Vhyjj3y1teRu1IEEyOxo-34" target="Vhyjj3y1teRu1IEEyOxo-19">
          <mxGeometry relative="1" as="geometry">
            <Array as="points">
              <mxPoint x="1906" y="99" />
            </Array>
          </mxGeometry>
        </mxCell>
        <mxCell id="Vhyjj3y1teRu1IEEyOxo-69" value="" style="curved=1;startArrow=none;endArrow=block;exitX=0;exitY=0.59;entryX=0.5;entryY=0;rounded=0;" edge="1" parent="1" source="Vhyjj3y1teRu1IEEyOxo-34" target="Vhyjj3y1teRu1IEEyOxo-24">
          <mxGeometry relative="1" as="geometry">
            <Array as="points">
              <mxPoint x="1598" y="99" />
            </Array>
          </mxGeometry>
        </mxCell>
        <mxCell id="Vhyjj3y1teRu1IEEyOxo-70" value="" style="curved=1;dashed=1;dashPattern=2 3;startArrow=none;endArrow=block;exitX=0.35;exitY=1;entryX=0;entryY=0.33;rounded=0;" edge="1" parent="1" source="Vhyjj3y1teRu1IEEyOxo-11" target="Vhyjj3y1teRu1IEEyOxo-37">
          <mxGeometry relative="1" as="geometry">
            <Array as="points">
              <mxPoint x="2981" y="253" />
              <mxPoint x="2981" y="278" />
            </Array>
          </mxGeometry>
        </mxCell>
        <mxCell id="Vhyjj3y1teRu1IEEyOxo-71" value="" style="curved=1;dashed=1;dashPattern=2 3;startArrow=none;endArrow=block;exitX=0.32;exitY=1;entryX=1;entryY=0.39;rounded=0;" edge="1" parent="1" source="Vhyjj3y1teRu1IEEyOxo-27" target="Vhyjj3y1teRu1IEEyOxo-38">
          <mxGeometry relative="1" as="geometry">
            <Array as="points">
              <mxPoint x="1070" y="535" />
              <mxPoint x="1070" y="585" />
            </Array>
          </mxGeometry>
        </mxCell>
        <mxCell id="Vhyjj3y1teRu1IEEyOxo-72" value="" style="curved=1;dashed=1;dashPattern=2 3;startArrow=none;endArrow=block;exitX=0.5;exitY=1;entryX=0.5;entryY=0;rounded=0;" edge="1" parent="1" source="Vhyjj3y1teRu1IEEyOxo-30" target="Vhyjj3y1teRu1IEEyOxo-39">
          <mxGeometry relative="1" as="geometry">
            <Array as="points" />
          </mxGeometry>
        </mxCell>
        <mxCell id="Vhyjj3y1teRu1IEEyOxo-73" value="" style="curved=1;dashed=1;dashPattern=2 3;startArrow=none;endArrow=block;exitX=0.29;exitY=1;entryX=1;entryY=0.44;rounded=0;" edge="1" parent="1" source="Vhyjj3y1teRu1IEEyOxo-20" target="Vhyjj3y1teRu1IEEyOxo-40">
          <mxGeometry relative="1" as="geometry">
            <Array as="points">
              <mxPoint x="1820" y="406" />
              <mxPoint x="1820" y="431" />
            </Array>
          </mxGeometry>
        </mxCell>
      </root>
    </mxGraphModel>
  </diagram>
</mxfile>
